<svg class="svg-icon" style="width: 1.271484375em; height: 1em;vertical-align: middle;fill: currentColor;overflow: hidden;" viewBox="0 0 1302 1024" version="1.1" xmlns="http://www.w3.org/2000/svg"><path d="M336.473043 508.638609c-13.423304-13.423304-34.949565-13.423304-48.083478 0l-74.050782 74.150956C191.710609 442.323478 237.534609 299.074783 338.142609 198.366609c83.556174-83.656348 194.782609-129.825391 312.987826-129.825392 118.205217 0 229.431652 46.169043 313.266087 129.825392 13.412174 13.423304 34.938435 13.423304 48.072348 0 13.133913-13.434435 13.412174-34.971826 0-48.128C916.057043 53.715478 787.500522 0.278261 651.130435 0.278261c-136.370087 0-264.926609 53.158957-361.338435 149.960348-116.535652 116.669217-169.349565 283.14713-142.514087 445.696l-87.195826-87.296c-13.412174-13.423304-34.927304-13.423304-48.061217 0-13.423304 13.434435-13.423304 34.971826 0 48.128l138.050782 138.206608c6.700522 6.722783 15.36 10.073043 24.030609 10.073044 8.659478 0 17.318957-3.350261 24.041739-10.073044l138.039652-138.206608c13.690435-13.156174 13.690435-34.693565 0.278261-48.128zM1290.24 508.638609l-138.050783-138.206609c-13.412174-13.434435-34.927304-13.434435-48.061217 0L966.077217 508.638609c-13.412174 13.434435-13.412174 34.971826 0 48.128 13.412174 13.423304 34.927304 13.423304 48.061218 0l77.968695-78.057739c9.794783 129.257739-35.205565 254.319304-127.710608 346.64626-83.556174 83.656348-194.782609 129.814261-313.266087 129.814261S421.698783 909.022609 337.864348 825.35513c-13.412174-13.434435-34.938435-13.434435-48.072348 0-13.412174 13.434435-13.412174 34.971826 0 48.128C386.203826 970.006261 514.760348 1023.443478 651.130435 1023.443478c136.370087 0 264.926609-53.158957 361.338435-149.960348 106.473739-106.607304 158.45287-250.412522 147.545043-398.970434l82.16487 82.253913c6.711652 6.711652 15.36 10.073043 24.041739 10.073043 8.648348 0 17.318957-3.361391 24.019478-10.073043 13.423304-13.156174 13.423304-34.693565 0-48.128z" fill="#2E323F" /></svg>