<svg width="29" height="29" viewBox="0 0 29 29" fill="none" xmlns="http://www.w3.org/2000/svg">
<path fill-rule="evenodd" clip-rule="evenodd" d="M4.82125 20.3652L3.2335 24.5992C3.17253 24.7622 3.15975 24.9392 3.19668 25.1092C3.23362 25.2792 3.31871 25.435 3.44179 25.558C3.56487 25.6809 3.72075 25.7659 3.89079 25.8026C4.06084 25.8394 4.23787 25.8264 4.40075 25.7653L8.63354 24.1775C9.11801 23.9961 9.55804 23.713 9.92404 23.3474L22.185 11.0865C22.185 11.0865 21.7572 9.80441 20.4764 8.52237C19.1956 7.24154 17.9123 6.81379 17.9123 6.81379L5.65137 19.0747C5.28575 19.4407 5.0027 19.8808 4.82125 20.3652ZM19.6221 5.10399L21.2932 3.43287C21.5929 3.1332 21.9929 2.94229 22.411 3.01237C22.9994 3.10904 23.8996 3.40145 24.7479 4.25091C25.5973 5.10037 25.8897 5.99937 25.9864 6.58783C26.0565 7.00591 25.8656 7.40587 25.5659 7.70554L23.8936 9.37666C23.8936 9.37666 23.467 8.09583 22.185 6.81499C20.9042 5.53174 19.6221 5.10399 19.6221 5.10399Z" fill="#F2F2F2"/>
</svg>
