<svg width="23" height="23" viewBox="0 0 23 23" fill="none" xmlns="http://www.w3.org/2000/svg">
<path opacity="0.4" d="M11.1923 13.959L7.45394 17.6974C7.04237 17.3316 6.64224 16.9543 6.25353 16.5656C5.076 15.3766 4.01278 14.1305 3.06389 12.8272C2.12643 11.5239 1.37189 10.2206 0.823134 8.92872C0.274378 7.62543 0 6.37929 0 5.19032C0 4.41292 0.137189 3.66981 0.411567 2.98386C0.685945 2.28648 1.12038 1.64627 1.7263 1.07465C2.45797 0.354405 3.25824 0 4.10424 0C4.42435 0 4.74446 0.0685946 5.03027 0.205784C5.32751 0.342973 5.59045 0.548756 5.79624 0.845999L8.44856 4.5844C8.65434 4.87021 8.80297 5.13316 8.90586 5.38467C9.00875 5.62475 9.06591 5.86483 9.06591 6.08205C9.06591 6.35643 8.98588 6.63081 8.82583 6.89375C8.67721 7.1567 8.45999 7.43108 8.18561 7.70545L7.31675 8.60861C7.19099 8.73437 7.13383 8.88299 7.13383 9.06591C7.13383 9.15737 7.14526 9.2374 7.16813 9.32886C7.20243 9.42032 7.23672 9.48891 7.25959 9.55751C7.46537 9.93478 7.81978 10.4264 8.3228 11.0209C8.83726 11.6153 9.38602 12.2213 9.9805 12.8272C10.3921 13.2273 10.7922 13.616 11.1923 13.959Z" fill="#F2F2F2"/>
<path d="M22.8301 18.6692C22.8301 18.9893 22.773 19.3208 22.6586 19.6409C22.6243 19.7324 22.59 19.8238 22.5443 19.9153C22.35 20.3269 22.0985 20.7156 21.7669 21.0814C21.2067 21.6988 20.5894 22.1446 19.892 22.4304C19.8806 22.4304 19.8691 22.4419 19.8577 22.4419C19.1832 22.7162 18.4515 22.8649 17.6627 22.8649C16.4966 22.8649 15.2504 22.5905 13.9357 22.0303C12.621 21.4701 11.3062 20.7156 10.0029 19.7667C9.55709 19.4351 9.11123 19.1036 8.68823 18.7492L12.4266 15.0108C12.7467 15.2509 13.0325 15.4338 13.2726 15.5595C13.3298 15.5824 13.3984 15.6167 13.4784 15.651C13.5699 15.6853 13.6613 15.6967 13.7642 15.6967C13.9586 15.6967 14.1072 15.6281 14.2329 15.5024L15.1018 14.6449C15.3876 14.3591 15.662 14.1419 15.9249 14.0047C16.1879 13.8447 16.4508 13.7646 16.7366 13.7646C16.9539 13.7646 17.1825 13.8104 17.434 13.9133C17.6855 14.0162 17.9485 14.1648 18.2343 14.3591L22.0184 17.0458C22.3157 17.2515 22.5215 17.4916 22.6472 17.7774C22.7615 18.0632 22.8301 18.3491 22.8301 18.6692Z" fill="#F2F2F2"/>
</svg>
