<svg width="27" height="32" viewBox="0 0 27 32" fill="none" xmlns="http://www.w3.org/2000/svg">
<path opacity="0.4" d="M20.0833 2.55872H6.93219C3.10165 2.55872 0 5.67588 0 9.49091V24.0842C0 27.8992 3.11716 31.0164 6.93219 31.0164H20.0677C23.8983 31.0164 26.9999 27.8992 26.9999 24.0842V9.49091C27.0154 5.66037 23.8983 2.55872 20.0833 2.55872Z" fill="#EB5757"/>
<path d="M17.1532 0H9.86429C8.25143 0 6.93323 1.30269 6.93323 2.91555V4.37333C6.93323 5.98619 8.23592 7.28888 9.84878 7.28888H17.1532C18.7661 7.28888 20.0688 5.98619 20.0688 4.37333V2.91555C20.0843 1.30269 18.7661 0 17.1532 0Z" fill="#EB5757"/>
<path d="M17.432 21.1221L15.1833 18.8734L17.3545 16.7022C17.8042 16.2525 17.8042 15.5081 17.3545 15.0583C16.9047 14.6086 16.1603 14.6086 15.7106 15.0583L13.5394 17.2295L11.2907 14.9808C10.841 14.5311 10.0965 14.5311 9.64677 14.9808C9.19703 15.4305 9.19703 16.1749 9.64677 16.6247L11.8955 18.8734L9.58474 21.1841C9.135 21.6338 9.135 22.3782 9.58474 22.828C9.81737 23.0606 10.112 23.1692 10.4067 23.1692C10.7014 23.1692 10.9961 23.0606 11.2287 22.828L13.5394 20.5172L15.7881 22.7659C16.0207 22.9986 16.3154 23.1071 16.6101 23.1071C16.9047 23.1071 17.1994 22.9986 17.432 22.7659C17.8817 22.3162 17.8817 21.5873 17.432 21.1221Z" fill="#EB5757"/>
</svg>
