<svg width="24" height="23" viewBox="0 0 24 23" fill="none" xmlns="http://www.w3.org/2000/svg">
<path opacity="0.4" d="M21.4551 2.54495C18.0503 -0.848316 12.5291 -0.848316 9.14733 2.54495C6.76629 4.90298 6.05313 8.29624 6.97334 11.2869L1.56712 16.6932C1.18753 17.0843 0.922975 17.8549 1.00349 18.407L1.34857 20.9146C1.4751 21.7428 2.24577 22.525 3.07396 22.64L5.58152 22.9851C6.13365 23.0656 6.90432 22.8125 7.29541 22.41L8.23862 21.4667C8.46867 21.2482 8.46867 20.8801 8.23862 20.6501L6.00712 18.4186C5.67354 18.085 5.67354 17.5329 6.00712 17.1993C6.34069 16.8657 6.89282 16.8657 7.22639 17.1993L9.4694 19.4423C9.68795 19.6608 10.056 19.6608 10.2745 19.4423L12.7131 17.0152C15.6923 17.9469 19.0855 17.2223 21.4551 14.8643C24.8483 11.471 24.8483 5.93821 21.4551 2.54495ZM15.3702 11.494C13.7828 11.494 12.4945 10.2057 12.4945 8.61831C12.4945 7.03096 13.7828 5.74267 15.3702 5.74267C16.9575 5.74267 18.2458 7.03096 18.2458 8.61831C18.2458 10.2057 16.9575 11.494 15.3702 11.494Z" fill="#F2F2F2"/>
<path d="M15.3695 11.4938C16.9577 11.4938 18.2452 10.2064 18.2452 8.6182C18.2452 7.03003 16.9577 5.74255 15.3695 5.74255C13.7814 5.74255 12.4939 7.03003 12.4939 8.6182C12.4939 10.2064 13.7814 11.4938 15.3695 11.4938Z" fill="#F2F2F2"/>
</svg>
