<svg width="25" height="27" viewBox="0 0 25 27" fill="none" xmlns="http://www.w3.org/2000/svg">
<path d="M19.7616 14.4056C18.5306 14.4056 17.3912 14.8377 16.4876 15.558C15.2828 16.514 14.5232 17.9939 14.5232 19.644C14.5232 20.6262 14.7982 21.556 15.2828 22.3417C16.1864 23.8609 17.8496 24.8824 19.7616 24.8824C21.0843 24.8824 22.2891 24.3978 23.2058 23.5728C23.6118 23.2323 23.9654 22.8132 24.2404 22.3417C24.725 21.556 25 20.6262 25 19.644C25 16.7498 22.6558 14.4056 19.7616 14.4056ZM22.4724 19.0808L19.683 21.6607C19.4997 21.831 19.2508 21.9227 19.0151 21.9227C18.7663 21.9227 18.5175 21.831 18.321 21.6346L17.0245 20.3381C16.6447 19.9583 16.6447 19.3297 17.0245 18.9499C17.4043 18.5701 18.0329 18.5701 18.4127 18.9499L19.0413 19.5785L21.1367 17.6403C21.5295 17.2736 22.1581 17.2998 22.5248 17.6927C22.8915 18.0855 22.8653 18.7011 22.4724 19.0808Z" fill="#F2F2F2"/>
<path opacity="0.4" d="M23.8084 25.5372C23.8084 25.9039 23.5203 26.192 23.1536 26.192H0.654799C0.288111 26.192 0 25.9039 0 25.5372C0 20.1155 5.34314 15.7152 11.9043 15.7152C13.2532 15.7152 14.5628 15.8986 15.7676 16.2521C14.9949 17.1689 14.5235 18.3606 14.5235 19.644C14.5235 20.6262 14.7984 21.556 15.2829 22.3418C15.5448 22.787 15.8853 23.193 16.2782 23.5335C17.1949 24.3716 18.413 24.8824 19.7619 24.8824C21.2286 24.8824 22.5513 24.28 23.4942 23.3109C23.7038 24.0181 23.8084 24.7645 23.8084 25.5372Z" fill="#F2F2F2"/>
<path d="M11.9039 13.096C15.5203 13.096 18.4519 10.1643 18.4519 6.54799C18.4519 2.93164 15.5203 0 11.9039 0C8.2876 0 5.35596 2.93164 5.35596 6.54799C5.35596 10.1643 8.2876 13.096 11.9039 13.096Z" fill="#F2F2F2"/>
</svg>
