<svg width="80" height="31" viewBox="0 0 80 31" fill="none" xmlns="http://www.w3.org/2000/svg">
<path d="M8.52354 12C7.82087 12 7.24854 11.813 6.80654 11.439C6.37587 11.065 6.16054 10.5153 6.16054 9.79V8.838C6.16054 8.50933 6.20021 8.226 6.27954 7.988C6.35887 7.75 6.51187 7.53467 6.73854 7.342H6.09254C5.44654 7.342 4.95921 7.50633 4.63054 7.835C4.30187 8.16367 4.13754 8.583 4.13754 9.093V15.74H3.13454V9.076C3.13454 8.71333 3.19687 8.36767 3.32154 8.039C3.44621 7.71033 3.63321 7.42133 3.88254 7.172C4.13187 6.91133 4.44354 6.70733 4.81754 6.56C5.19154 6.40133 5.62221 6.322 6.10954 6.322H8.91454C9.33387 6.322 9.68521 6.38433 9.96854 6.509C10.2519 6.62233 10.4785 6.77533 10.6485 6.968C10.8299 7.16067 10.9545 7.38167 11.0225 7.631C11.1019 7.88033 11.1415 8.13533 11.1415 8.396V9.756C11.1415 10.1527 11.0735 10.4927 10.9375 10.776C10.8129 11.048 10.6315 11.2803 10.3935 11.473C10.1555 11.6543 9.87787 11.7903 9.56054 11.881C9.24321 11.9603 8.89754 12 8.52354 12ZM8.62554 10.946C9.10154 10.946 9.47554 10.8383 9.74754 10.623C10.0309 10.4077 10.1725 10.0847 10.1725 9.654V8.651C10.1725 8.29967 10.0705 7.99933 9.86654 7.75C9.66254 7.50067 9.34521 7.376 8.91454 7.376H8.37054C7.93987 7.376 7.62254 7.50633 7.41854 7.767C7.22587 8.01633 7.12954 8.328 7.12954 8.702V9.603C7.12954 10.0337 7.25987 10.368 7.52054 10.606C7.78121 10.8327 8.14954 10.946 8.62554 10.946ZM12.8836 2.565H13.8866V12H12.8836V2.565ZM17.1999 11.745C17.1999 12.3457 17.1036 12.8897 16.9109 13.377C16.7296 13.8757 16.4746 14.295 16.1459 14.635C15.8172 14.9863 15.4319 15.2583 14.9899 15.451C14.5479 15.6437 14.0662 15.74 13.5449 15.74H12.6269L12.5419 14.686H13.2899C13.8112 14.686 14.2589 14.601 14.6329 14.431C14.9956 14.2723 15.2959 14.057 15.5339 13.785C15.7719 13.513 15.9476 13.1957 16.0609 12.833C16.1742 12.4817 16.2309 12.119 16.2309 11.745V7.563H17.2339V9.773C17.2339 10.1243 17.3529 10.4077 17.5909 10.623C17.8289 10.8383 18.1406 10.946 18.5259 10.946H18.6959C18.9226 10.946 19.0359 11.116 19.0359 11.456C19.0359 11.8187 18.9226 12 18.6959 12H18.5259C18.2766 12 18.0329 11.9547 17.7949 11.864C17.5569 11.7733 17.3586 11.6147 17.1999 11.388V11.745ZM19.8615 1.987L24.7575 0.0829994L24.9105 0.848L19.8955 2.803L19.8615 1.987ZM22.7685 10.946C23.2331 10.946 23.5505 10.8497 23.7205 10.657C23.9018 10.4643 23.9925 10.232 23.9925 9.96C23.9925 9.77867 23.9585 9.58033 23.8905 9.365C23.8225 9.14967 23.6525 8.91167 23.3805 8.651L19.9465 5.217V4.112L25.1655 2.089L25.3695 3.092L20.9325 4.809L23.8225 7.699C24.6045 8.481 25.2278 9.093 25.6925 9.535C26.1571 9.96567 26.5311 10.2887 26.8145 10.504C27.1091 10.708 27.3528 10.8327 27.5455 10.878C27.7495 10.9233 27.9818 10.946 28.2425 10.946C28.4691 10.946 28.5825 11.116 28.5825 11.456C28.5825 11.8187 28.4691 12 28.2425 12C27.9478 12 27.6815 11.9773 27.4435 11.932C27.2168 11.8753 26.9845 11.7733 26.7465 11.626C26.5085 11.4787 26.2478 11.2803 25.9645 11.031C25.6811 10.7817 25.3355 10.4587 24.9275 10.062C24.9501 10.402 24.9105 10.6967 24.8085 10.946C24.7178 11.184 24.5761 11.3823 24.3835 11.541C24.2021 11.6997 23.9811 11.8187 23.7205 11.898C23.4598 11.966 23.1765 12 22.8705 12H18.6885C18.4618 12 18.3485 11.83 18.3485 11.49C18.3485 11.1273 18.4618 10.946 18.6885 10.946H22.7685ZM28.6254 10.946C29.056 10.946 29.3847 10.8383 29.6114 10.623C29.838 10.3963 29.9514 10.096 29.9514 9.722V2.565H30.9544V9.722C30.9544 9.94867 30.9884 10.1413 31.0564 10.3C31.1357 10.4473 31.2377 10.572 31.3624 10.674C31.487 10.7647 31.6287 10.8327 31.7874 10.878C31.946 10.9233 32.1047 10.946 32.2634 10.946H32.5014C32.728 10.946 32.8414 11.116 32.8414 11.456C32.8414 11.8187 32.728 12 32.5014 12H32.2464C31.8724 12 31.521 11.932 31.1924 11.796C30.875 11.66 30.6144 11.3937 30.4104 10.997C30.1837 11.3937 29.9117 11.66 29.5944 11.796C29.2884 11.932 28.9654 12 28.6254 12H28.2344C28.0077 12 27.8944 11.83 27.8944 11.49C27.8944 11.1273 28.0077 10.946 28.2344 10.946H28.6254ZM33.895 10.946C34.2916 10.946 34.609 10.8383 34.847 10.623C35.0963 10.3963 35.221 10.096 35.221 9.722V7.563H36.224V9.722C36.224 10.4473 36.02 11.0083 35.612 11.405C35.204 11.8017 34.6543 12 33.963 12H32.501C32.2743 12 32.161 11.83 32.161 11.49C32.161 11.1273 32.2743 10.946 32.501 10.946H33.895ZM36.377 5.608H35.136V4.52H36.377V5.608ZM34.422 5.608H33.181V4.52H34.422V5.608ZM6.82221 28.686C7.34354 28.686 7.78554 28.635 8.14821 28.533C8.51088 28.431 8.79988 28.295 9.01521 28.125C9.24188 27.955 9.40621 27.7623 9.50821 27.547C9.61021 27.343 9.66121 27.1277 9.66121 26.901C9.66121 26.6403 9.59888 26.425 9.47421 26.255C9.34954 26.085 9.13421 26 8.82821 26H6.22721L6.31221 24.946H11.8032C12.0299 24.946 12.1432 25.116 12.1432 25.456C12.1432 25.8187 12.0299 26 11.8032 26H10.2902C10.4149 26.1133 10.4999 26.2493 10.5452 26.408C10.6019 26.578 10.6302 26.765 10.6302 26.969C10.6302 27.241 10.5679 27.5357 10.4432 27.853C10.3299 28.1817 10.1315 28.482 9.84821 28.754C9.56488 29.0373 9.18521 29.2697 8.70921 29.451C8.24454 29.6437 7.66654 29.74 6.97521 29.74H5.42821C4.27221 29.74 3.37121 29.383 2.72521 28.669C2.09054 27.955 1.77321 26.9803 1.77321 25.745V23.042H2.77621V25.711C2.77621 26.6063 2.99721 27.326 3.43921 27.87C3.89254 28.414 4.60654 28.686 5.58121 28.686H6.82221ZM12.3428 24.946C12.7735 24.946 13.1135 24.8383 13.3628 24.623C13.6122 24.3963 13.7368 24.096 13.7368 23.722V21.563H14.7228V23.722C14.7228 23.9487 14.7625 24.1413 14.8418 24.3C14.9212 24.4473 15.0232 24.572 15.1478 24.674C15.2838 24.7647 15.4312 24.8327 15.5898 24.878C15.7485 24.9233 15.9128 24.946 16.0828 24.946C16.5588 24.946 16.9215 24.8383 17.1708 24.623C17.4315 24.3963 17.5618 24.096 17.5618 23.722V21.563H18.5478V23.722C18.5478 24.1753 18.6725 24.4927 18.9218 24.674C19.1825 24.8553 19.4772 24.946 19.8058 24.946C20.1912 24.946 20.5028 24.8383 20.7408 24.623C20.9788 24.3963 21.0978 24.096 21.0978 23.722V21.563H22.1008V23.722C22.1008 24.4473 21.8968 25.0083 21.4888 25.405C21.0808 25.8017 20.5255 26 19.8228 26C19.4602 26 19.1145 25.932 18.7858 25.796C18.4685 25.66 18.2135 25.3937 18.0208 24.997C17.7942 25.3937 17.5052 25.66 17.1538 25.796C16.8138 25.932 16.4568 26 16.0828 26C15.6748 26 15.3065 25.932 14.9778 25.796C14.6492 25.66 14.3885 25.3937 14.1958 24.997C13.9692 25.3937 13.6858 25.66 13.3458 25.796C13.0058 25.932 12.6545 26 12.2918 26H11.7988C11.5722 26 11.4588 25.83 11.4588 25.49C11.4588 25.1273 11.5722 24.946 11.7988 24.946H12.3428ZM25.2857 25.745C25.2857 26.3457 25.1893 26.8897 24.9967 27.377C24.804 27.8757 24.5433 28.295 24.2147 28.635C23.886 28.9863 23.495 29.2583 23.0417 29.451C22.5997 29.6437 22.118 29.74 21.5967 29.74H20.6787L20.5937 28.686H21.3417C21.863 28.686 22.3107 28.601 22.6847 28.431C23.0473 28.2723 23.3477 28.057 23.5857 27.785C23.8237 27.513 23.9993 27.1957 24.1127 26.833C24.226 26.4817 24.2827 26.119 24.2827 25.745V21.563H25.2857V25.745ZM29.0686 26C28.7966 26 28.5359 25.9603 28.2866 25.881C28.0372 25.8017 27.8162 25.6713 27.6236 25.49C27.4422 25.2973 27.2949 25.0537 27.1816 24.759C27.0682 24.453 27.0116 24.0733 27.0116 23.62V16.565H28.0146V23.433C28.0146 23.8637 28.1052 24.2263 28.2866 24.521C28.4792 24.8043 28.7909 24.946 29.2216 24.946H29.4936C29.7202 24.946 29.8336 25.116 29.8336 25.456C29.8336 25.8187 29.7202 26 29.4936 26H29.0686ZM32.1141 24.946C32.3748 24.946 32.5958 24.946 32.7771 24.946C32.9698 24.9347 33.1794 24.929 33.4061 24.929C32.8281 24.725 32.3691 24.5323 32.0291 24.351C31.6891 24.1583 31.4341 23.96 31.2641 23.756C31.0941 23.5407 30.9864 23.314 30.9411 23.076C30.8958 22.8267 30.8731 22.5547 30.8731 22.26C30.8731 21.9767 30.9298 21.6877 31.0431 21.393C31.1564 21.087 31.3208 20.815 31.5361 20.577C31.7514 20.3277 32.0178 20.1293 32.3351 19.982C32.6638 19.8233 33.0434 19.744 33.4741 19.744C33.8594 19.744 34.2108 19.8007 34.5281 19.914C34.8568 20.016 35.1344 20.186 35.3611 20.424C35.5878 20.662 35.7634 20.9737 35.8881 21.359C36.0128 21.733 36.0751 22.1977 36.0751 22.753V23.433C36.0751 24.2377 35.8371 24.8667 35.3611 25.32C34.8851 25.7733 34.1314 26 33.1001 26H29.4961C29.2694 26 29.1561 25.83 29.1561 25.49C29.1561 25.1273 29.2694 24.946 29.4961 24.946H32.1141ZM33.4061 20.798C33.1568 20.798 32.9301 20.8433 32.7261 20.934C32.5334 21.0247 32.3691 21.1437 32.2331 21.291C32.0971 21.4383 31.9894 21.6083 31.9101 21.801C31.8421 21.9823 31.8081 22.1693 31.8081 22.362C31.8081 22.566 31.8251 22.753 31.8591 22.923C31.9044 23.093 32.0178 23.263 32.1991 23.433C32.3804 23.603 32.6581 23.7843 33.0321 23.977C33.4061 24.1583 33.9274 24.368 34.5961 24.606C34.7548 24.4813 34.8794 24.3113 34.9701 24.096C35.0721 23.8807 35.1231 23.637 35.1231 23.365V22.872C35.1231 22.226 34.9871 21.7217 34.7151 21.359C34.4544 20.985 34.0181 20.798 33.4061 20.798ZM34.1201 18.214H32.8281V17.092H34.1201V18.214Z" fill="#F2F2F2"/>
<path d="M52.8387 28.6398C49.4547 31.9589 43.7235 31.9457 42.1229 27.5221C41.8095 26.6561 41.559 25.7655 41.3747 24.8569C40.6223 21.1468 41.0084 17.3013 42.4844 13.8065C43.9603 10.3118 46.4596 7.32481 49.6664 5.22325C52.8732 3.1217 56.6433 2 60.5 2C64.3568 2 68.1269 3.1217 71.3336 5.22325C74.5404 7.32481 77.0397 10.3118 78.5157 13.8066C79.9916 17.3013 80.3777 21.1468 79.6253 24.8569C79.4411 25.7655 79.1905 26.6561 78.8771 27.5221C77.2765 31.9457 71.5453 31.9589 68.1612 28.6398L62.9375 23.5164C62.4384 23.0269 62.49 22.2196 62.6277 21.5407C62.7113 21.128 62.6684 20.7002 62.5042 20.3114C62.34 19.9226 62.062 19.5903 61.7052 19.3566C61.3485 19.1228 60.9291 18.998 60.5 18.998C60.071 18.998 59.6516 19.1228 59.2949 19.3566C58.938 19.5903 58.66 19.9226 58.4958 20.3114C58.3316 20.7002 58.2887 21.128 58.3724 21.5407C58.5101 22.2196 58.5615 23.0269 58.0625 23.5164L52.8387 28.6398Z" fill="url(#paint0_linear_13_214)"/>
<defs>
<linearGradient id="paint0_linear_13_214" x1="78.225" y1="11.5628" x2="43.6125" y2="11.5628" gradientUnits="userSpaceOnUse">
<stop stop-color="#64C2DB"/>
<stop offset="0.510417" stop-color="#7476ED"/>
<stop offset="1" stop-color="#E56F8C"/>
</linearGradient>
</defs>
</svg>
