<svg width="21" height="21" viewBox="0 0 21 21" fill="none" xmlns="http://www.w3.org/2000/svg">
<path d="M8.93992 18.8558C8.93985 19.7764 9.68578 20.5226 10.6063 20.5229C11.5267 20.523 12.2731 19.7769 12.2733 18.8566L8.93992 18.8558ZM12.2748 10.6086C12.275 9.68793 11.5291 8.9417 10.6084 8.94154C9.68807 8.94139 8.94168 9.68746 8.94153 10.6078L12.2748 10.6086ZM8.94153 10.6078C8.94184 11.5283 9.68839 12.2752 10.6089 12.2748C11.5294 12.2745 12.2753 11.5289 12.2748 10.6086L8.94153 10.6078ZM12.2716 2.35802C12.2713 1.43753 11.5248 0.691655 10.6043 0.691983C9.68387 0.692328 8.93792 1.43884 8.93841 2.3592L12.2716 2.35802ZM10.6084 8.94154C9.68807 8.94139 8.94168 9.68746 8.94153 10.6078C8.94184 11.5283 9.68839 12.2752 10.6089 12.2748L10.6084 8.94154ZM18.8566 12.2733C19.7769 12.2731 20.523 11.5267 20.5228 10.6064C20.5227 9.68575 19.7764 8.93983 18.8558 8.93998L18.8566 12.2733ZM10.6089 12.2748C11.5294 12.2745 12.2753 11.5289 12.2748 10.6086C12.275 9.68793 11.5291 8.9417 10.6084 8.94154L10.6089 12.2748ZM2.3573 8.93999C1.43688 8.93975 0.69054 9.68581 0.690352 10.6063C0.690181 11.5268 1.43624 12.2731 2.35671 12.2733L2.3573 8.93999ZM12.2733 18.8566L12.2748 10.6086L8.94153 10.6078L8.93992 18.8558L12.2733 18.8566ZM12.2748 10.6086L12.2716 2.35802L8.93841 2.3592L8.94153 10.6078L12.2748 10.6086ZM10.6089 12.2748L18.8566 12.2733L18.8558 8.93998L10.6084 8.94154L10.6089 12.2748ZM10.6084 8.94154L2.3573 8.93999L2.35671 12.2733L10.6089 12.2748L10.6084 8.94154Z" fill="#F2F2F2"/>
</svg>
