<svg width="29" height="29" viewBox="0 0 29 29" fill="none" xmlns="http://www.w3.org/2000/svg">
<path d="M19.563 2.41667H9.43716C5.03883 2.41667 2.41675 5.03875 2.41675 9.43709V19.5508C2.41675 23.9613 5.03883 26.5833 9.43716 26.5833H19.5509C23.9492 26.5833 26.5713 23.9613 26.5713 19.5629V9.43709C26.5834 5.03875 23.9613 2.41667 19.563 2.41667ZM6.34383 14.3671C6.38008 12.2404 7.22591 10.2346 8.72425 8.73625C10.2709 7.18959 12.3251 6.34375 14.5001 6.34375C16.6751 6.34375 18.7292 7.18959 20.2638 8.73625C20.3001 8.7725 20.3363 8.82084 20.3726 8.86917V7.83C20.3726 7.33459 20.7834 6.92375 21.2788 6.92375C21.7743 6.92375 22.1851 7.33459 22.1851 7.83V11.0321C22.1851 11.5275 21.7743 11.9383 21.2788 11.9383H18.0767C17.5813 11.9383 17.1705 11.5275 17.1705 11.0321C17.1705 10.5367 17.5813 10.1258 18.0767 10.1258H19.0797C19.0434 10.0896 19.0192 10.0533 18.983 10.0171C17.7867 8.82084 16.1917 8.15625 14.5001 8.15625C12.8084 8.15625 11.2134 8.82084 10.0172 10.0171C8.84508 11.1892 8.19258 12.7479 8.16842 14.4033C8.15633 14.8867 7.7455 15.2854 7.25008 15.2854H7.238C6.74258 15.2854 6.34383 14.8625 6.34383 14.3671ZM20.2638 20.2638C18.7292 21.7983 16.6751 22.6563 14.5001 22.6563C12.3251 22.6563 10.2709 21.8104 8.73633 20.2638C8.70008 20.2275 8.66383 20.1792 8.62758 20.1308V21.1579C8.62758 21.6533 8.21675 22.0642 7.72133 22.0642C7.22591 22.0642 6.81508 21.6533 6.81508 21.1579V17.9558C6.81508 17.4604 7.22591 17.0496 7.72133 17.0496H10.9234C11.4188 17.0496 11.8297 17.4604 11.8297 17.9558C11.8297 18.4513 11.4188 18.8621 10.9234 18.8621H9.9205C9.95675 18.8983 9.98092 18.9346 10.0172 18.9708C11.2134 20.1671 12.8084 20.8317 14.5001 20.8317C16.1917 20.8317 17.7867 20.1671 18.983 18.9708C20.1672 17.7867 20.8317 16.2038 20.8317 14.5121C20.8317 14.0167 21.2426 13.6058 21.738 13.6058C22.2334 13.6058 22.6442 14.0167 22.6442 14.5121C22.6442 16.6992 21.7984 18.7413 20.2638 20.2638Z" fill="#F2F2F2"/>
</svg>
