<svg width="27" height="27" viewBox="0 0 27 27" fill="none" xmlns="http://www.w3.org/2000/svg">
<path d="M2.63255 13.5C2.63163 13.074 2.75166 12.6565 2.9787 12.296C3.20573 11.9355 3.53044 11.6469 3.91505 11.4637L20.3963 3.65625C20.6979 3.49178 21.0321 3.39576 21.3751 3.375C21.7503 3.37578 22.1195 3.47042 22.4488 3.6503C22.7782 3.83018 23.0573 4.08959 23.2608 4.4049C23.4643 4.72022 23.5857 5.08143 23.614 5.45565C23.6422 5.82987 23.5764 6.20521 23.4226 6.5475L20.8576 12.375L14.6251 12.375C14.3267 12.375 14.0405 12.4935 13.8296 12.7045C13.6186 12.9155 13.5001 13.2016 13.5001 13.5C13.5001 13.7984 13.6186 14.0845 13.8296 14.2955C14.0405 14.5065 14.3267 14.625 14.6251 14.625L20.8576 14.625L23.4226 20.3962C23.6084 20.8156 23.6616 21.2818 23.5751 21.7323C23.4886 22.1828 23.2664 22.5961 22.9384 22.9168C22.6104 23.2374 22.1922 23.4502 21.7398 23.5265C21.2875 23.6028 20.8226 23.5391 20.4076 23.3437L3.9263 15.5362C3.53958 15.3547 3.21255 15.0668 2.98345 14.7062C2.75434 14.3456 2.63263 13.9272 2.63255 13.5Z" fill="#F2F2F2"/>
</svg>
